<?xml version='1.0' encoding='utf-8'?>
<svg xmlns="http://www.w3.org/2000/svg" width="1282" height="746" viewBox="0 0 1282 746" role="img" aria-label="GitLab Delivery Pipeline">
  <rect width="100%" height="100%" fill="#ffffff" />
  <defs>
    <marker id="arrow-4d4d4d" viewBox="0 0 10 10" refX="9" refY="5" markerWidth="7" markerHeight="7" orient="auto-start-reverse">
      <path d="M 0 0 L 10 5 L 0 10 z" fill="#4d4d4d" />
    </marker>
  </defs>
  <rect x="70" y="45" width="496" height="157" rx="14" fill="#f7f7f7" stroke="#7a7a7a" stroke-width="2" />
  <text x="86" y="69" fill="#111111" font-family="Inter, Arial, sans-serif" font-size="14" font-weight="700">verify</text>
  <rect x="656" y="277" width="228" height="157" rx="14" fill="#f7f7f7" stroke="#7a7a7a" stroke-width="2" />
  <text x="672" y="301" fill="#111111" font-family="Inter, Arial, sans-serif" font-size="14" font-weight="700">build</text>
  <rect x="974" y="509" width="228" height="157" rx="14" fill="#f7f7f7" stroke="#7a7a7a" stroke-width="2" />
  <text x="990" y="533" fill="#111111" font-family="Inter, Arial, sans-serif" font-size="14" font-weight="700">deploy</text>
  <polyline points="770.0,404 770.0,484.0 1088.0,484.0 1088.0,564" fill="none" stroke="#4d4d4d" stroke-width="2" marker-end="url(#arrow-4d4d4d)" stroke-dasharray="7 5" />
  <text x="929.0" y="476.0" fill="#111111" font-family="Inter, Arial, sans-serif" font-size="11" text-anchor="middle">needs</text>
  <polyline points="184.0,172 184.0,252.0 716.24,252.0 716.24,332" fill="none" stroke="#4d4d4d" stroke-width="2" marker-end="url(#arrow-4d4d4d)" stroke-dasharray="7 5" />
  <text x="450.12" y="244.0" fill="#111111" font-family="Inter, Arial, sans-serif" font-size="11" text-anchor="middle">needs</text>
  <polyline points="452.0,172 452.0,252.0 823.76,252.0 823.76,332" fill="none" stroke="#4d4d4d" stroke-width="2" marker-end="url(#arrow-4d4d4d)" stroke-dasharray="7 5" />
  <text x="637.88" y="244.0" fill="#111111" font-family="Inter, Arial, sans-serif" font-size="11" text-anchor="middle">needs</text>
  <rect x="686" y="332" width="168" height="72" rx="12" fill="#cfe2f3" stroke="#56b4e9" stroke-width="2" />
  <text x="770.0" y="361.0" fill="#111111" font-family="Inter, Arial, sans-serif" font-size="13" font-weight="700" text-anchor="middle">build</text>
  <text x="770.0" y="381.0" fill="#111111" font-family="Inter, Arial, sans-serif" font-size="10" text-anchor="middle">1 script step(s)</text>
  <rect x="1004" y="564" width="168" height="72" rx="12" fill="#cfe2f3" stroke="#56b4e9" stroke-width="2" />
  <text x="1088.0" y="593.0" fill="#111111" font-family="Inter, Arial, sans-serif" font-size="13" font-weight="700" text-anchor="middle">deploy</text>
  <text x="1088.0" y="613.0" fill="#111111" font-family="Inter, Arial, sans-serif" font-size="10" text-anchor="middle">1 script step(s)</text>
  <rect x="100" y="100" width="168" height="72" rx="12" fill="#cfe2f3" stroke="#56b4e9" stroke-width="2" />
  <text x="184.0" y="129.0" fill="#111111" font-family="Inter, Arial, sans-serif" font-size="13" font-weight="700" text-anchor="middle">lint</text>
  <text x="184.0" y="149.0" fill="#111111" font-family="Inter, Arial, sans-serif" font-size="10" text-anchor="middle">1 script step(s)</text>
  <rect x="368" y="100" width="168" height="72" rx="12" fill="#cfe2f3" stroke="#56b4e9" stroke-width="2" />
  <text x="452.0" y="129.0" fill="#111111" font-family="Inter, Arial, sans-serif" font-size="13" font-weight="700" text-anchor="middle">test</text>
  <text x="452.0" y="149.0" fill="#111111" font-family="Inter, Arial, sans-serif" font-size="10" text-anchor="middle">1 script step(s)</text>
</svg>